<?xml version="1.0" encoding="UTF-8" standalone="no"?>
<svg
   xmlns:dc="http://purl.org/dc/elements/1.1/"
   xmlns:cc="http://creativecommons.org/ns#"
   xmlns:rdf="http://www.w3.org/1999/02/22-rdf-syntax-ns#"
   xmlns:svg="http://www.w3.org/2000/svg"
   xmlns="http://www.w3.org/2000/svg"
   xmlns:sodipodi="http://sodipodi.sourceforge.net/DTD/sodipodi-0.dtd"
   xmlns:inkscape="http://www.inkscape.org/namespaces/inkscape"
   inkscape:export-ydpi="12.288"
   inkscape:export-xdpi="12.288"
   inkscape:export-filename="C:\Personal\GitHub\AutInputYShop\images\icon128.png"
   width="1000"
   height="1000"
   viewBox="0 0 1000 1000"
   version="1.1"
   id="svg8"
   inkscape:version="1.0 (4035a4fb49, 2020-05-01)"
   sodipodi:docname="icon.svg">
  <defs
     id="defs2" />
  <sodipodi:namedview
     id="base"
     pagecolor="#ffffff"
     bordercolor="#666666"
     borderopacity="1.0"
     inkscape:pageopacity="0.0"
     inkscape:pageshadow="2"
     inkscape:zoom="0.35"
     inkscape:cx="849.20573"
     inkscape:cy="556.63749"
     inkscape:document-units="px"
     inkscape:current-layer="layer1"
     inkscape:document-rotation="0"
     showgrid="true"
     units="px"
     inkscape:window-width="1638"
     inkscape:window-height="743"
     inkscape:window-x="172"
     inkscape:window-y="301"
     inkscape:window-maximized="0"
     inkscape:snap-bbox="true"
     inkscape:bbox-paths="true"
     inkscape:bbox-nodes="true">
    <inkscape:grid
       type="xygrid"
       id="grid833" />
  </sodipodi:namedview>
  <metadata
     id="metadata5">
    <rdf:RDF>
      <cc:Work
         rdf:about="">
        <dc:format>image/svg+xml</dc:format>
        <dc:type
           rdf:resource="http://purl.org/dc/dcmitype/StillImage" />
        <dc:title></dc:title>
      </cc:Work>
    </rdf:RDF>
  </metadata>
  <g
     inkscape:label="レイヤー 1"
     inkscape:groupmode="layer"
     id="layer1">
    <path
       inkscape:export-ydpi="4.7505264"
       inkscape:export-xdpi="4.7505264"
       inkscape:export-filename="C:\Personal\GitHub\AutInputYShop\images\icon48.png"
       d="M 500 5 C 404.84116 5 318.0277 26.170458 251.66406 63.5 C 213.92978 84.725536 181.93829 111.91311 160.83789 145 L 40 145 A 25.0025 25.0025 0 0 0 15.125 172.48828 L 95.125 972.48828 A 25.0025 25.0025 0 0 0 120 995 L 880 995 A 25.0025 25.0025 0 0 0 904.875 972.48828 L 984.875 172.48828 A 25.0025 25.0025 0 0 0 960 145 L 839.16211 145 C 818.06171 111.91311 786.07022 84.725536 748.33594 63.5 C 681.9723 26.170458 595.15884 5 500 5 z M 500 95 C 581.47564 95 654.90807 114.20745 704.21289 141.94141 C 705.98055 142.93571 707.47152 143.98998 709.17188 145 L 290.82812 145 C 292.52848 143.98998 294.01945 142.93571 295.78711 141.94141 C 345.09193 114.20745 418.52436 95 500 95 z "
       style="color:#000000;font-style:normal;font-variant:normal;font-weight:normal;font-stretch:normal;font-size:medium;line-height:normal;font-family:sans-serif;font-variant-ligatures:normal;font-variant-position:normal;font-variant-caps:normal;font-variant-numeric:normal;font-variant-alternates:normal;font-variant-east-asian:normal;font-feature-settings:normal;font-variation-settings:normal;text-indent:0;text-align:start;text-decoration:none;text-decoration-line:none;text-decoration-style:solid;text-decoration-color:#000000;letter-spacing:normal;word-spacing:normal;text-transform:none;writing-mode:lr-tb;direction:ltr;text-orientation:mixed;dominant-baseline:auto;baseline-shift:baseline;text-anchor:start;white-space:normal;shape-padding:0;shape-margin:0;inline-size:0;clip-rule:nonzero;display:inline;overflow:visible;visibility:visible;opacity:0.999;isolation:auto;mix-blend-mode:normal;color-interpolation:sRGB;color-interpolation-filters:linearRGB;solid-color:#000000;solid-opacity:1;vector-effect:none;fill:#ffffff;fill-opacity:1;fill-rule:nonzero;stroke:none;stroke-width:50;stroke-linecap:round;stroke-linejoin:round;stroke-miterlimit:4;stroke-dasharray:none;stroke-dashoffset:0;stroke-opacity:1;color-rendering:auto;image-rendering:auto;shape-rendering:auto;text-rendering:auto;enable-background:accumulate;stop-color:#000000"
       id="path872" />
    <path
       sodipodi:nodetypes="ssccccccssssccss"
       d="M 500,30 C 408.59446,30 325.6172,50.584345 263.91992,85.289062 224.29067,107.58052 192.69762,136.46847 175.16602,170 H 40 l 80,800 H 880 L 960,170 H 824.83398 C 807.30238,136.46847 775.70933,107.58052 736.08008,85.289062 674.3828,50.584345 591.40554,30 500,30 Z m 0,40 c 85.32558,0 162.34881,19.709879 216.46875,50.15234 26.35274,14.82342 46.8271,31.75267 60.91992,49.84766 H 222.61133 c 14.09282,-18.09499 34.56718,-35.02424 60.91992,-49.84766 C 337.65119,89.709879 414.67442,70 500,70 Z"
       style="opacity:0.999;fill:#000000;stroke:none;stroke-width:11.0526;stroke-linecap:round;stroke-linejoin:round"
       id="rect831" />
    <path
       d="M 500,254 395.84082,409.58867 209.01464,422 291.67959,590 209.01464,758 395.84082,770.41133 500,926 604.15918,770.41133 790.98536,758 708.32041,590 790.98536,422 604.15918,409.58867 Z m 167.8831,15.75 -131.6745,0.58652 35.04169,52.34415 L 668.1169,322.25 A 26.25,26.25 0 0 0 694.25,295.8831 26.25,26.25 0 0 0 667.8831,269.75 Z m -204.30702,0.90849 -134.30362,0.59884 a 26.252625,26.252625 0 0 0 -22.67549,13.22753 l -65.32969,114.32696 62.85235,-4.1754 40.54189,-70.94678 83.66163,-0.37324 z m -258.34512,191.2169 -66.63399,116.60947 a 26.252625,26.252625 0 0 0 0.1169,26.24795 l 66.34483,113.74043 27.81063,-56.51953 -41.16943,-70.58174 41.50782,-72.63867 z m 36.42392,319.3374 67.66964,116.0127 A 26.252625,26.252625 0 0 0 332.1169,910.25 l 131.6745,-0.58652 -35.04169,-52.34415 -81.71133,0.363 -42.15381,-72.26748 z m 428.83887,75.02988 -98.8169,0.43887 -35.25293,52.65997 134.30362,-0.59884 a 26.25,26.25 0 0 0 26.13311,-26.36689 26.25,26.25 0 0 0 -26.3669,-26.13311 z"
       style="color:#000000;font-style:normal;font-variant:normal;font-weight:normal;font-stretch:normal;font-size:medium;line-height:normal;font-family:sans-serif;font-variant-ligatures:normal;font-variant-position:normal;font-variant-caps:normal;font-variant-numeric:normal;font-variant-alternates:normal;font-variant-east-asian:normal;font-feature-settings:normal;font-variation-settings:normal;text-indent:0;text-align:start;text-decoration:none;text-decoration-line:none;text-decoration-style:solid;text-decoration-color:#000000;letter-spacing:normal;word-spacing:normal;text-transform:none;writing-mode:lr-tb;direction:ltr;text-orientation:mixed;dominant-baseline:auto;baseline-shift:baseline;text-anchor:start;white-space:normal;shape-padding:0;shape-margin:0;inline-size:0;clip-rule:nonzero;display:inline;overflow:visible;visibility:visible;opacity:0.999;isolation:auto;mix-blend-mode:normal;color-interpolation:sRGB;color-interpolation-filters:linearRGB;solid-color:#000000;solid-opacity:1;vector-effect:none;fill:#ffffff;fill-opacity:1;fill-rule:nonzero;stroke:none;stroke-width:52.5;stroke-linecap:round;stroke-linejoin:round;stroke-miterlimit:4;stroke-dasharray:none;stroke-dashoffset:0;stroke-opacity:1;color-rendering:auto;image-rendering:auto;shape-rendering:auto;text-rendering:auto;enable-background:accumulate;stop-color:#000000;stop-opacity:1"
       id="path852" />
  </g>
</svg>
